<?xml version="1.0" standalone="no"?>
<!DOCTYPE svg PUBLIC "-//W3C//DTD SVG 20010904//EN"
 "http://www.w3.org/TR/2001/REC-SVG-20010904/DTD/svg10.dtd">
<svg version="1.0" xmlns="http://www.w3.org/2000/svg"
 width="253.000000pt" height="253.000000pt" viewBox="0 0 253.000000 253.000000"
 preserveAspectRatio="xMidYMid meet">
<metadata>
Created by potrace 1.11, written by Peter Selinger 2001-2013
</metadata>
<g transform="translate(0.000000,253.000000) scale(0.100000,-0.100000)"
fill="#000000" stroke="none">
<path d="M278 1590 c-22 -6 -23 -11 -26 -103 -2 -77 -6 -97 -17 -97 -8 0 -24
-9 -34 -19 -17 -17 -19 -35 -19 -173 0 -159 6 -198 33 -198 9 0 13 -4 10 -10
-10 -16 21 -11 35 5 11 14 15 14 37 -1 20 -13 55 -16 185 -16 87 0 162 2 165
5 7 8 7 242 0 254 -4 6 -21 9 -39 7 -41 -5 -68 4 -68 22 0 13 -6 15 -50 18 -9
1 -15 15 -18 41 -4 38 -20 71 -30 61 -10 -11 -41 15 -36 29 4 8 1 15 -6 15 -6
0 -8 -5 -5 -10 4 -7 -2 -9 -19 -4 -36 9 -68 9 -92 1 -21 -7 -21 -5 -21 71 l1
79 63 -1 c60 0 68 -4 64 -33 -1 -7 2 -13 8 -13 10 0 6 58 -4 68 -7 8 -88 8
-117 2z m241 -341 c-18 -11 -39 -11 -39 0 0 5 12 9 26 9 18 0 22 -3 13 -9z"/>
<path d="M393 1475 c0 -19 3 -35 7 -35 3 0 6 16 6 35 0 19 -3 35 -6 35 -4 0
-7 -16 -7 -35z"/>
<path d="M567 1460 c-4 -15 0 -20 14 -20 17 0 19 -8 19 -65 0 -58 2 -65 20
-65 21 0 22 5 22 83 0 39 3 47 18 47 13 0 18 7 17 20 -1 17 -8 20 -53 20 -43
0 -53 -3 -57 -20z"/>
<path d="M1190 1395 c0 -78 2 -85 20 -85 18 0 20 7 20 85 0 78 -2 85 -20 85
-18 0 -20 -7 -20 -85z"/>
<path d="M687 1432 c-1 -4 -2 -32 -2 -62 0 -44 3 -55 18 -58 14 -3 17 4 17 42
0 34 4 46 15 46 8 0 15 8 15 18 0 14 -8 19 -30 20 -16 0 -31 -2 -33 -6z"/>
<path d="M778 1426 c-29 -21 -33 -67 -9 -93 16 -17 31 -22 71 -21 l50 1 0 63
0 62 -47 0 c-27 1 -56 -5 -65 -12z m56 -22 c21 -8 21 -50 0 -58 -32 -12 -57
27 -32 52 14 14 12 14 32 6z"/>
<path d="M903 1428 c3 -7 14 -37 23 -65 14 -42 22 -53 39 -53 17 0 25 11 39
53 9 28 20 58 23 65 3 7 -3 12 -15 12 -13 0 -24 -12 -34 -37 l-15 -38 -10 35
c-7 25 -16 36 -32 38 -16 3 -22 0 -18 -10z"/>
<path d="M1051 1414 c-27 -34 -26 -55 2 -82 30 -28 69 -28 93 0 l19 21 -37 -6
c-21 -3 -40 -1 -43 4 -4 5 14 9 40 9 46 0 47 1 40 27 -14 56 -79 72 -114 27z
m69 -14 c11 -7 6 -10 -20 -10 -26 0 -31 3 -20 10 8 5 17 10 20 10 3 0 12 -5
20 -10z"/>
<path d="M805 1113 c-16 -43 -31 -81 -33 -85 -2 -5 1 -8 7 -8 7 0 16 11 21 24
15 41 84 41 94 0 4 -13 11 -24 17 -24 11 0 8 13 -26 105 -13 33 -29 61 -37 63
-8 2 -24 -25 -43 -75z m63 5 c11 -27 10 -28 -18 -28 -17 0 -30 2 -30 4 0 1 5
18 11 35 12 34 18 33 37 -11z"/>
<path d="M1041 1164 c-84 -70 25 -192 111 -124 14 11 28 29 31 40 5 18 0 20
-49 20 -30 0 -54 -5 -54 -10 0 -6 16 -10 35 -8 43 3 54 -8 29 -27 -27 -21 -71
-18 -94 5 -58 58 31 148 92 93 10 -9 21 -13 26 -9 12 12 -38 46 -68 46 -16 0
-42 -11 -59 -26z"/>
<path d="M1290 1105 l0 -85 45 0 c25 0 45 5 45 10 0 6 -16 10 -35 10 -32 0
-35 2 -35 30 0 28 3 30 35 30 19 0 35 5 35 10 0 6 -16 10 -35 10 -31 0 -35 3
-35 25 0 22 4 25 35 25 19 0 35 5 35 10 0 6 -20 10 -45 10 l-45 0 0 -85z"/>
<path d="M1490 1105 c0 -50 4 -85 10 -85 6 0 10 31 10 73 l0 72 48 -72 c26
-40 53 -73 60 -73 9 0 12 24 12 85 0 50 -4 85 -10 85 -6 0 -10 -31 -10 -72 l0
-71 -47 71 c-26 40 -53 72 -60 72 -10 0 -13 -23 -13 -85z"/>
<path d="M1756 1164 c-33 -34 -34 -73 0 -113 29 -35 75 -41 112 -15 30 21 28
40 -3 20 -13 -9 -35 -16 -48 -16 -31 0 -67 35 -67 65 0 54 72 85 112 48 10 -9
21 -13 26 -9 13 13 -39 46 -73 46 -22 0 -41 -9 -59 -26z"/>
<path d="M1980 1183 c0 -5 11 -26 25 -48 14 -23 25 -56 25 -77 0 -21 5 -38 10
-38 6 0 10 14 10 30 0 17 11 53 25 80 27 54 29 60 17 60 -5 0 -18 -19 -29 -41
l-21 -42 -21 42 c-19 36 -41 55 -41 34z"/>
</g>
</svg>
